<?xml version="1.0" encoding="utf-8"?>
<!-- Generator: Adobe Illustrator 22.1.0, SVG Export Plug-In . SVG Version: 6.00 Build 0)  -->
<svg version="1.1" id="Layer_1" xmlns="http://www.w3.org/2000/svg" xmlns:xlink="http://www.w3.org/1999/xlink" x="0px" y="0px"
	 viewBox="0 0 550 145.2" style="enable-background:new 0 0 550 145.2;" xml:space="preserve">
<style type="text/css">
	.st0{fill:#FFFFFF;}
</style>
<g>
	<path class="st0" d="M110.2,77.7c0,14.4,0,28.9,0,43.3c0,0.4,0,0.8,0,1.2c-0.1,1-0.9,1.9-2,2c-0.3,0-0.7,0-1,0
		c-29.1,0-58.1,0-87.2,0c-0.3,0-0.7,0-1,0c-0.9-0.1-1.8-0.8-1.9-1.7c-0.1-0.5-0.1-1-0.1-1.4c0-29,0-57.9,0-86.9c0-0.5,0-1,0.1-1.4
		c0.2-0.9,1-1.6,1.9-1.7c0.4,0,0.7,0,1.1,0c29,0,58,0,86.9,0c0.4,0,0.7,0,1.1,0c1.1,0.1,2,1,2,2.1c0,0.4,0,0.7,0,1.1
		C110.2,48.7,110.2,63.2,110.2,77.7z M107,77.6c0-14.1,0-28.3,0-42.4c0-1.1,0-1.2-1.2-1.2c-28.2,0-56.5,0-84.7,0
		C20,34,20,34,20,35.3c0,28.2,0,56.5,0,84.7c0,1.2,0,1.2,1.3,1.2c28.2,0,56.4,0,84.6,0c1.3,0,1.3,0,1.3-1.2
		C107,105.9,107,91.8,107,77.6z"/>
	<path class="st0" d="M211.5,77.6c-0.1,5.2-1.1,10-4.1,14.1c-3.4,4.7-7.9,7.5-13.7,8.2c-4.1,0.5-8.2,0.2-12-1.4
		c-5.6-2.3-9.2-6.5-11.1-12.1c-2.2-6.5-2.1-13.1,0.8-19.4c3-6.6,8.1-10.7,15.5-11.7c4.4-0.6,8.7-0.3,12.8,1.6
		c5.3,2.5,8.6,6.6,10.5,12C211.2,71.9,211.5,74.8,211.5,77.6z M178.6,77.7c-0.1,0-0.1,0-0.2,0c0.3,1.9,0.5,3.9,1,5.8
		c1.8,6.8,7.6,10.1,14.3,8.4c3.8-1,6.1-3.7,7.5-7.3c1.4-3.8,1.4-7.8,0.7-11.7c-1-5.4-4.3-9.3-9.8-10c-4.4-0.5-8.6,0.9-11.2,5.1
		C179,71.1,178.5,74.4,178.6,77.7z"/>
	<path class="st0" d="M336.3,78.6c0.1-5.8,1.1-10.7,4.1-15c3.3-4.6,7.8-7.5,13.5-8.3c3.7-0.5,7.3-0.3,10.8,0.8
		c6.2,2.1,10.3,6.4,12.5,12.5c2,5.6,2.1,11.4,0.3,17.1c-2.4,7.5-7.4,12.4-15.2,14c-5.8,1.2-11.4,0.6-16.5-2.7
		c-4.1-2.6-6.8-6.4-8.2-11c-0.4-1.1-0.7-2.3-0.9-3.5C336.4,80.9,336.3,79.4,336.3,78.6z M369.4,77.7c-0.2-1.5-0.2-3-0.5-4.5
		c-1-5.5-4.4-9.6-9.7-10.3c-5.1-0.6-9.8,1.4-11.9,6.4c-2.1,4.9-2.2,10-0.6,15c1.4,4.4,4.4,7.4,9.2,7.9c4.4,0.5,8.5-0.8,11.2-5.1
		C368.8,84.3,369.3,81.1,369.4,77.7z"/>
	<path class="st0" d="M487.7,68.8c-2.8,0-5.6,0-8.3,0c-0.2,0-0.6-0.4-0.6-0.6c-0.3-3.1-2.5-5.5-6.7-5.8c-1.8-0.1-3.5-0.1-5.3,0.5
		c-2.3,0.9-3.6,3-3.1,5.4c0.2,0.9,0.7,1.7,1.6,2.1c1.7,0.7,3.4,1.4,5.1,1.9c3.8,1.2,7.8,2.1,11.6,3.5c3.4,1.2,6.1,3.6,6.9,7.3
		c1.4,6.1-1,12.3-7.3,15.1c-2.7,1.2-5.5,1.7-8.4,1.9c-3.5,0.2-6.8-0.1-10.1-1.3c-4.2-1.5-7.5-4.1-9.1-8.4c-0.5-1.5-0.6-3.2-0.9-4.8
		c-0.1-0.4,0.1-0.6,0.5-0.6c2.6,0,5.3,0,7.9,0c0.2,0,0.6,0.3,0.6,0.6c0.5,3.8,2.5,6.1,6.4,7c3,0.7,5.9,0.6,8.7-0.7
		c1.7-0.8,2.8-2,3-3.9c0.2-2.1-0.9-3.6-2.6-4.6c-2.2-1.3-4.7-1.7-7.1-2.4c-3-0.9-6.1-1.6-9-2.8c-3.4-1.4-5.9-3.9-6.7-7.7
		c-1.2-5.6,1.5-11,6.8-13.5c3.3-1.6,6.7-2.1,10.4-2c3.5,0.2,6.8,0.8,9.8,2.6c3.9,2.4,5.9,5.8,6,10.4c0,0.1,0,0.3,0,0.4
		C487.8,68.6,487.8,68.7,487.7,68.8z"/>
	<path class="st0" d="M331.4,82.7c-0.1,2.1-0.5,4.1-1.3,5.9c-2.6,6.6-7.4,10.4-14.4,11.3c-5.9,0.8-11.5-0.2-16.3-4
		c-3.9-3.1-6.4-7.2-7.4-12c-1.2-5.7-1-11.4,1.4-16.8c2.7-6.1,7.2-10.1,13.8-11.5c5.1-1.1,10.2-0.8,14.9,1.6c5.2,2.8,8.2,7.1,9,13.1
		c-0.3,0-0.6,0.1-0.8,0.1c-2.5,0-4.9,0-7.4,0c-0.4,0-0.7,0-0.9-0.6c-1.1-4-4.7-6.7-9-6.9c-4.8-0.2-8.9,2.2-10.7,6.7
		c-2.2,5.4-2.3,11,0.1,16.4c2.6,5.8,8.4,7.5,13.5,5.9c3.7-1.1,5.4-4,6.3-7.6c0.4-1.6,0.3-1.6,1.9-1.6
		C326.5,82.7,328.9,82.7,331.4,82.7z"/>
	<path class="st0" d="M227.5,99.2c-1.9,0-3.6,0-5.4,0c-1.1,0-2.2,0-3.2,0c-0.5,0-0.7-0.2-0.7-0.7c0-0.2,0-0.3,0-0.5
		c0-13.6,0-27.2,0-40.8c0-1.2,0-1.2,1.1-1.2c6.1,0,12.1,0,18.2,0c3.4,0,6.8,0.6,9.6,2.7c3,2.2,4.7,5.1,5.1,8.8
		c0.4,2.8,0.2,5.6-0.9,8.2c-1.8,4.3-5.2,6.7-9.7,7.5c-1.5,0.3-3.1,0.3-4.7,0.4c-2.8,0.1-5.7,0-8.5,0c-0.7,0-1,0.2-1,1
		c0,4.5,0,9,0,13.5C227.5,98.4,227.5,98.8,227.5,99.2z M227.5,69.8c0,2,0,3.9,0,5.9c0,0.4,0,0.8,0.6,0.7c3.2-0.1,6.5,0,9.7-0.2
		c2.3-0.2,4.3-1.2,5.2-3.6c0.6-1.6,0.6-3.3,0.1-5c-0.7-2.5-2.8-4-5.9-4.1c-3-0.1-5.9-0.1-8.9-0.1c-0.6,0-0.8,0.2-0.8,0.8
		C227.5,66,227.5,67.9,227.5,69.8z"/>
	<path class="st0" d="M130.7,56c0.4,0,0.7,0,1,0c11.1,0,22.1,0,33.2,0c0.8,0,1.1,0.2,1,1c-0.1,2-0.1,3.9,0,5.9c0,0.9-0.3,1-1.1,1
		c-3.6,0-7.2,0-10.8,0c-1.1,0-1.1,0-1.1,1.1c0,11,0,22,0,33c0,0.4,0,0.7,0,1.1c-0.4,0-0.6,0-0.9,0c-2.5,0-4.9,0-7.4,0
		c-0.8,0-1-0.2-1-1c0-5.5,0-10.9,0-16.4c0-5.6,0-11.3,0-16.9c0-0.9-0.2-1.1-1.1-1.1c-3.6,0-7.2,0-10.9,0c-0.3,0-0.6,0-1,0
		C130.7,61.3,130.7,58.7,130.7,56z"/>
	<path class="st0" d="M504.8,99.2c0-0.5,0-0.8,0-1.2c0-11,0-22,0-33c0-1.1,0-1.1-1.1-1.1c-3.6,0-7.2,0-10.8,0c-0.3,0-0.6,0-1,0
		c0-2.6,0-5.2,0-7.8c11.7,0,23.4,0,35.1,0c0,2.6,0,5.1,0,7.8c-4.3,0-8.5,0-12.9,0c0,0.5-0.1,1-0.1,1.4c0,10.9,0,21.8,0,32.7
		c0,1.2,0,1.2-1.2,1.2C510.2,99.2,507.6,99.2,504.8,99.2z"/>
	<path class="st0" d="M411.4,56c0,0.5,0,0.9,0,1.2c0,10.9,0,21.9,0,32.8c0,1.2,0,1.2,1.3,1.2c6.2,0,12.4,0,18.7,0c0.3,0,0.7,0,1.1,0
		c0,2.6,0,5.2,0,7.9c-0.3,0-0.6,0-0.9,0c-9.5,0-18.9,0-28.4,0c-0.8,0-1-0.2-1-1c0-13.7,0-27.4,0-41.2c0-0.7,0.1-1,1-1
		c2.5,0.1,4.9,0,7.4,0C410.8,56,411,56,411.4,56z"/>
	<path class="st0" d="M438.1,56c3,0,5.8,0,8.7,0c0.2,0,0.4,0.3,0.5,0.5c0.1,0.2,0,0.5,0,0.8c0,13.6,0,27.1,0,40.7
		c0,1.3,0,1.3-1.2,1.3c-2.3,0-4.7,0-7,0c-0.3,0-0.6,0-1,0C438.1,84.8,438.1,70.5,438.1,56z"/>
	<path class="st0" d="M284.7,56c0,14.4,0,28.7,0,43.1c-0.3,0-0.5,0.1-0.7,0.1c-2.5,0-5,0-7.6,0c-0.8,0-1-0.3-1-1
		c0-5.6,0-11.2,0-16.8c0-8.1,0-16.2,0-24.3c0-1.1,0-1.1,1.1-1.1C279.2,56,281.9,56,284.7,56z"/>
	<path class="st0" d="M63.6,76.1c8,0,16.1,0,24.1,0c1.2,0,1.9,0.5,1.9,1.5c0,0.8-0.5,1.4-1.4,1.6c-0.3,0.1-0.6,0-0.9,0
		c-15.9,0-31.7,0-47.6,0c-0.4,0-0.8,0-1.2-0.1c-0.8-0.2-1.3-0.9-1.1-1.6c0.1-0.8,0.6-1.3,1.4-1.4c0.3-0.1,0.6,0,0.8,0
		C47.6,76.1,55.6,76.1,63.6,76.1z"/>
	<path class="st0" d="M63.6,95.8c8,0,16.1,0,24.1,0c1.2,0,1.8,0.4,1.9,1.2c0.1,0.9-0.3,1.5-1.2,1.7c-0.4,0.1-0.8,0.1-1.2,0.1
		c-15.8,0-31.6,0-47.5,0c-0.4,0-0.8,0-1.2-0.1c-0.8-0.2-1.3-0.8-1.2-1.6c0-0.7,0.6-1.3,1.4-1.4c0.3,0,0.6,0,0.9,0
		C47.7,95.8,55.6,95.8,63.6,95.8z"/>
	<path class="st0" d="M63.5,59.5c-8.1,0-16.3,0-24.4,0c-0.7,0-1.2-0.3-1.5-0.9c-0.3-0.6-0.3-1.2,0.2-1.6c0.3-0.3,0.9-0.5,1.3-0.7
		c0.2-0.1,0.5,0,0.8,0c15.8,0,31.6,0,47.4,0c0.4,0,0.9,0,1.3,0.1c0.8,0.2,1.2,0.8,1.1,1.6c-0.1,0.8-0.7,1.3-1.5,1.3
		c-1.8,0-3.5,0-5.3,0C76.4,59.5,70,59.5,63.5,59.5z"/>
</g>
</svg>
