<?xml version="1.0" encoding="utf-8"?>
<!-- Generator: Adobe Illustrator 22.1.0, SVG Export Plug-In . SVG Version: 6.00 Build 0)  -->
<svg version="1.1" id="Layer_1" xmlns="http://www.w3.org/2000/svg" xmlns:xlink="http://www.w3.org/1999/xlink" x="0px" y="0px"
	 viewBox="0 0 378 136" style="enable-background:new 0 0 378 136;" xml:space="preserve">
<style type="text/css">
	.st0{fill:#FFFFFF;}
</style>
<g>
	<g>
		<path class="st0" d="M140.5,40c4.4,0,8.8,0,13.2,0c0,6.6,0,13.1,0,19.5c1.8-1.2,3.4-2.7,5.3-3.6c8.7-4.1,19.5,0.2,23.4,9.2
			c2.9,6.7,3,13.6,0.2,20.3c-3,7-8.6,10.4-16.2,10.7c-4.2,0.2-8.1-0.9-11.2-3.8c-0.5-0.4-0.9-0.9-1.5-1.4c0,1.6,0,3.2,0,4.9
			c-4.5,0-8.8,0-13.3,0C140.5,77.2,140.5,58.6,140.5,40z M171.3,74.7c-0.1-0.7-0.2-1.9-0.6-3.1c-1-3.7-3.9-6-7.7-6.4
			c-3.4-0.3-6.6,1.5-8.1,4.6c-1.3,2.6-1.5,5.4-0.9,8.3c1.2,6.2,7.5,9.2,12.8,6.1C170.1,82.1,171.2,78.9,171.3,74.7z"/>
		<path class="st0" d="M329.2,95.7c-4.5,0-8.8,0-13.2,0c0-18.5,0-37.1,0-55.7c4.3,0,8.7,0,13.2,0c0,7.1,0,14.1,0,21.5
			c0.7-0.8,1.2-1.4,1.6-2c5.8-6.7,17.4-6.9,23-0.5c2.2,2.5,3.5,5.6,3.5,8.8c0.2,9.1,0.1,18.3,0.1,27.4c0,0.1-0.1,0.2-0.1,0.4
			c-4.4,0-8.7,0-13.2,0c0-0.4,0-0.8,0-1.2c0-6.7,0-13.4,0-20c0-1-0.1-2-0.3-2.9c-0.7-2.8-2.8-4.6-5.5-4.9c-3.5-0.4-6.4,1-7.9,3.8
			c-0.9,1.7-1.2,3.5-1.2,5.3c0,6.2,0,12.4,0,18.6C329.2,94.8,329.2,95.2,329.2,95.7z"/>
		<path class="st0" d="M128.2,117c-32.7,0-65.4,0-98.1,0c0-32.7,0-65.3,0-98c32.7,0,65.4,0,98.1,0C128.2,51.6,128.2,84.2,128.2,117z
			 M124.7,22.3c-30.5,0-60.9,0-91.3,0c0,30.4,0,60.8,0,91.2c30.5,0,60.9,0,91.3,0C124.7,83.1,124.7,52.7,124.7,22.3z"/>
		<path class="st0" d="M244,95.7c-4.5,0-8.9,0-13.3,0c0-13.5,0-27,0-40.6c4.4,0,8.7,0,13.2,0c0,2,0,4,0,6c0.1,0,0.2,0.1,0.3,0.1
			c0.2-0.3,0.5-0.6,0.7-0.9c5.6-7.4,16.6-7.5,22.1-2.9c3.4,2.8,5.1,6.6,5.2,10.9c0.2,6.7,0.1,13.5,0.1,20.3c0,2.3,0,4.6,0,7
			c-4.5,0-8.8,0-13.3,0c0-0.5,0-0.9,0-1.3c0-6.9,0-13.7,0-20.6c0-4.6-2.9-7.4-7.5-7.2c-4.3,0.2-7.4,3.7-7.5,8.4c0,6.4,0,12.9,0,19.3
			C244,94.8,244,95.2,244,95.7z"/>
		<path class="st0" d="M225.9,89c-2.3,2.5-5.3,4.5-8.7,5.6c-6.1,2-12.3,2.1-18.3-0.3c-7.2-2.8-10.9-8.3-11.9-15.8
			c-0.6-4.4-0.1-8.7,1.8-12.8c3.1-6.5,8.3-10,15.3-11c3.8-0.6,7.5-0.4,11.2,0.7c7.1,2.1,11.1,7.2,12.5,14.2c0.5,2.5,0.5,5.1,0.7,7.7
			c0.1,1.1-0.3,1.5-1.5,1.4c-8.5,0-17,0-25.5,0c-0.4,0-0.8,0-1.4,0c0.9,3.1,2.5,5.4,5.5,6.5c5.2,1.9,9.5,0.1,13.3-3.2
			C221.2,84.3,223.5,86.6,225.9,89z M215.4,71.6c0.3-3.9-2.9-7.4-6.8-7.6c-5.2-0.3-8.3,3.8-8.6,7.6
			C205.2,71.6,210.3,71.6,215.4,71.6z"/>
		<path class="st0" d="M313.5,64.2c-3.2,1.9-6.3,3.7-9.5,5.5c-0.5-0.5-1-1-1.5-1.5c-2.6-2.5-5.7-3.3-9.1-2.3
			c-3.4,1.1-4.9,3.8-5.5,7.1c-0.4,2.4-0.2,4.9,0.7,7.1c1.2,2.9,3.3,4.7,6.5,4.9c3.4,0.3,6.3-0.7,8.2-3.8c0.1-0.2,0.2-0.3,0.3-0.5
			c3.2,1.9,6.5,3.7,9.8,5.6c-1.2,2.4-2.9,4.4-5,5.9c-4.6,3.3-9.9,4.2-15.5,3.9c-3-0.2-5.9-0.9-8.6-2.4c-4.6-2.4-7.7-6.2-9.2-11.2
			c-1.5-5.3-1.4-10.5,0.6-15.7c2-5.1,5.6-8.8,10.8-10.7c7-2.5,14-2.2,20.6,1.5C309.8,59.3,311.9,61.4,313.5,64.2z"/>
		<path class="st0" d="M96.5,83c-8.9-0.1-15.8-7-15.4-15.7c0.3-6.2,3.6-10.5,9.3-12.9c7.1-2.9,15.4-0.4,19.3,5.7
			c5.5,8.7,0.5,20.3-9.6,22.4C98.9,82.8,97.7,82.9,96.5,83z M108.4,67.6c0-6.1-5.4-11.7-12.5-11.3c-6.9,0.5-11.8,6.1-11.3,12.5
			c0.5,6.2,6.5,11.3,12.6,10.8C104,79,108.9,73.8,108.4,67.6z"/>
		<path class="st0" d="M80.5,57.7c-0.7,0.8-1.3,1.5-2,2.3c-2.9-2.8-6.4-4.1-10.4-3.6c-2.9,0.4-5.3,1.7-7.3,3.8
			c-3.8,4.1-4,10.5-0.4,15c3.4,4.2,10.3,6.9,18,1.2c0.7,0.7,1.3,1.5,2,2.2c-5.1,5.2-14.7,6.5-21.3,0.6c-6-5.4-6.5-15-0.8-21
			C64.4,51.9,74.5,52.1,80.5,57.7z"/>
		<path class="st0" d="M46.5,53.3c1,0,2,0,3.1,0c0,9.8,0,19.5,0,29.4c-1,0-2,0-3.1,0C46.5,72.9,46.5,63.1,46.5,53.3z"/>
	</g>
</g>
</svg>
