<?xml version="1.0" encoding="utf-8"?>
<!-- Generator: Adobe Illustrator 22.1.0, SVG Export Plug-In . SVG Version: 6.00 Build 0)  -->
<svg version="1.1" id="Layer_1" xmlns="http://www.w3.org/2000/svg" xmlns:xlink="http://www.w3.org/1999/xlink" x="0px" y="0px"
	 viewBox="0 0 550 136" style="enable-background:new 0 0 550 136;" xml:space="preserve">
<style type="text/css">
	.st0{enable-background:new    ;}
	.st1{fill:#FFFFFF;}
</style>
<g>
	<g class="st0">
		<path class="st1" d="M139,93.1c-7.2,0-12.6-2-16.4-6s-5.6-9.7-5.6-17c0-3.7,0.6-6.9,1.7-9.8c1.1-2.9,2.7-5.3,4.7-7.3
			c2-2,4.4-3.5,7.1-4.5c2.8-1,5.8-1.5,9-1.5c1.9,0,3.6,0.1,5.1,0.4c1.5,0.3,2.9,0.6,4,1c1.1,0.4,2.1,0.7,2.9,1.1
			c0.8,0.4,1.3,0.7,1.7,0.9l-2.9,8c-1.4-0.7-2.9-1.3-4.7-1.8c-1.8-0.5-3.9-0.8-6.1-0.8c-1.5,0-3,0.3-4.5,0.8s-2.8,1.3-3.9,2.5
			c-1.1,1.1-2,2.6-2.7,4.4c-0.7,1.8-1,4-1,6.5c0,2,0.2,3.9,0.7,5.7c0.4,1.8,1.2,3.3,2.2,4.6c1,1.3,2.3,2.3,3.9,3
			c1.6,0.7,3.6,1.1,5.9,1.1c1.4,0,2.7-0.1,3.9-0.3c1.1-0.2,2.2-0.4,3.1-0.6c0.9-0.2,1.7-0.5,2.4-0.8c0.7-0.3,1.3-0.6,1.8-0.8l2.7,8
			c-1.4,0.9-3.4,1.6-5.9,2.3C145.3,92.8,142.3,93.1,139,93.1z"/>
		<path class="st1" d="M190.1,75.4c0,2.6-0.4,5-1.1,7.2c-0.8,2.2-1.9,4.1-3.3,5.6c-1.4,1.6-3.2,2.8-5.2,3.6c-2,0.8-4.3,1.3-6.8,1.3
			c-2.5,0-4.7-0.4-6.7-1.3c-2-0.8-3.7-2-5.2-3.6c-1.4-1.6-2.6-3.4-3.4-5.6c-0.8-2.2-1.2-4.6-1.2-7.2c0-2.6,0.4-5,1.2-7.2
			s2-4,3.4-5.5c1.5-1.5,3.2-2.7,5.2-3.6c2-0.8,4.2-1.3,6.6-1.3c2.4,0,4.6,0.4,6.7,1.3c2,0.9,3.7,2,5.2,3.6c1.4,1.5,2.6,3.4,3.4,5.5
			C189.7,70.3,190.1,72.7,190.1,75.4z M180.4,75.4c0-2.9-0.6-5.2-1.8-6.9c-1.2-1.7-2.8-2.5-5-2.5s-3.8,0.8-5,2.5
			c-1.2,1.7-1.8,4-1.8,6.9c0,2.9,0.6,5.3,1.8,7c1.2,1.7,2.9,2.6,5,2.6s3.8-0.9,5-2.6C179.8,80.6,180.4,78.3,180.4,75.4z"/>
		<path class="st1" d="M207.8,49c0,1.7-0.6,3.1-1.7,4.1c-1.1,1-2.5,1.5-4,1.5c-1.5,0-2.9-0.5-4-1.5c-1.1-1-1.7-2.4-1.7-4.1
			c0-1.7,0.6-3.1,1.7-4.1c1.1-1,2.5-1.5,4-1.5c1.5,0,2.9,0.5,4,1.5C207.2,45.9,207.8,47.3,207.8,49z M206.9,92.2h-9.5V58.7h9.5V92.2
			z"/>
		<path class="st1" d="M215.8,59.8c1.6-0.5,3.7-0.9,6.2-1.3c2.5-0.4,5.2-0.6,8-0.6c2.8,0,5.2,0.4,7.1,1.1c1.9,0.7,3.4,1.8,4.5,3.2
			c1.1,1.4,1.9,3,2.4,4.8c0.5,1.9,0.7,4,0.7,6.2v18.9h-9.5V74.4c0-3.1-0.4-5.2-1.2-6.5c-0.8-1.3-2.3-1.9-4.5-1.9
			c-0.7,0-1.4,0-2.2,0.1s-1.4,0.1-2,0.2v25.9h-9.5V59.8z"/>
		<path class="st1" d="M266.1,84.6c1.4,0,2.6-0.1,3.5-0.4c0.9-0.2,1.6-0.6,2.2-1c0.6-0.4,0.9-0.9,1.1-1.4c0.2-0.6,0.3-1.2,0.3-1.8
			c0-1.4-0.7-2.6-2-3.6c-1.4-1-3.7-2-7-3.1c-1.4-0.5-2.9-1.1-4.3-1.8c-1.4-0.7-2.7-1.5-3.9-2.5c-1.1-1-2.1-2.2-2.8-3.6
			c-0.7-1.4-1.1-3.2-1.1-5.2s0.4-3.9,1.1-5.5s1.8-3,3.2-4.2c1.4-1.1,3.1-2,5.1-2.6c2-0.6,4.2-0.9,6.8-0.9c3,0,5.5,0.3,7.7,1
			c2.2,0.6,4,1.3,5.4,2.1l-2.9,7.8c-1.2-0.6-2.6-1.2-4.1-1.7c-1.5-0.5-3.3-0.7-5.4-0.7c-2.4,0-4.1,0.3-5.1,1c-1,0.7-1.6,1.7-1.6,3
			c0,0.8,0.2,1.5,0.6,2c0.4,0.6,0.9,1.1,1.6,1.5c0.7,0.4,1.5,0.9,2.4,1.2c0.9,0.4,1.9,0.7,3,1.1c2.3,0.8,4.3,1.7,6,2.5
			c1.7,0.8,3.1,1.8,4.2,2.9c1.1,1.1,2,2.4,2.5,3.9c0.6,1.5,0.8,3.3,0.8,5.4c0,4.1-1.4,7.3-4.3,9.6c-2.9,2.3-7.2,3.4-13.1,3.4
			c-2,0-3.7-0.1-5.3-0.4c-1.6-0.2-3-0.5-4.2-0.9c-1.2-0.3-2.3-0.7-3.1-1.1c-0.9-0.4-1.6-0.7-2.2-1.1l2.8-7.9
			c1.3,0.7,2.9,1.4,4.9,1.9C260.9,84.3,263.2,84.6,266.1,84.6z"/>
		<path class="st1" d="M288.9,75.4c0-2.4,0.4-4.7,1.2-6.9c0.8-2.1,1.9-4,3.4-5.6c1.5-1.6,3.3-2.9,5.4-3.8c2.1-0.9,4.5-1.4,7.3-1.4
			c1.8,0,3.4,0.2,4.9,0.5c1.5,0.3,2.9,0.8,4.3,1.4l-2,7.6c-0.9-0.3-1.9-0.6-2.9-0.9c-1.1-0.3-2.3-0.4-3.6-0.4
			c-2.8,0-4.9,0.9-6.3,2.6c-1.4,1.7-2.1,4-2.1,6.9c0,3,0.6,5.4,1.9,7c1.3,1.7,3.6,2.5,6.8,2.5c1.1,0,2.4-0.1,3.7-0.3
			c1.3-0.2,2.5-0.6,3.6-1l1.3,7.8c-1.1,0.5-2.5,0.9-4.1,1.2c-1.7,0.3-3.5,0.5-5.5,0.5c-3.1,0-5.7-0.5-7.9-1.4
			c-2.2-0.9-4-2.2-5.4-3.7c-1.4-1.6-2.5-3.4-3.1-5.6C289.2,80.3,288.9,78,288.9,75.4z"/>
		<path class="st1" d="M322.3,92.2V44.3l9.5-1.5v16.1c0.6-0.2,1.5-0.4,2.5-0.6c1-0.2,2-0.3,2.9-0.3c2.7,0,5,0.4,6.8,1.1
			c1.8,0.7,3.2,1.8,4.3,3.2c1.1,1.4,1.8,3,2.3,4.8c0.4,1.9,0.7,4,0.7,6.2v18.9h-9.5V74.4c0-3.1-0.4-5.2-1.2-6.5s-2.2-1.9-4.4-1.9
			c-0.9,0-1.6,0.1-2.4,0.2c-0.7,0.1-1.4,0.3-2,0.5v25.5H322.3z"/>
		<path class="st1" d="M358.3,75.7c0-3,0.5-5.6,1.4-7.8c0.9-2.2,2.1-4.1,3.6-5.6c1.5-1.5,3.2-2.6,5.1-3.4c1.9-0.8,3.9-1.1,6-1.1
			c4.8,0,8.5,1.5,11.3,4.4c2.8,2.9,4.1,7.2,4.1,12.8c0,0.6,0,1.2-0.1,1.8c0,0.7-0.1,1.2-0.1,1.8H368c0.2,2,1.1,3.5,2.7,4.7
			c1.6,1.1,3.8,1.7,6.5,1.7c1.7,0,3.5-0.2,5.1-0.5c1.7-0.3,3-0.7,4.1-1.2l1.3,7.7c-0.5,0.3-1.2,0.5-2,0.8c-0.9,0.3-1.8,0.5-2.8,0.7
			c-1,0.2-2.2,0.4-3.3,0.5c-1.2,0.1-2.4,0.2-3.6,0.2c-3,0-5.6-0.4-7.9-1.3c-2.2-0.9-4.1-2.1-5.5-3.7c-1.5-1.5-2.5-3.4-3.2-5.5
			C358.6,80.5,358.3,78.2,358.3,75.7z M380.6,72.1c0-0.8-0.2-1.6-0.4-2.4c-0.2-0.8-0.6-1.4-1.1-2c-0.5-0.6-1.1-1.1-1.8-1.5
			c-0.7-0.4-1.7-0.6-2.8-0.6c-1.1,0-2,0.2-2.7,0.5c-0.8,0.4-1.4,0.8-1.9,1.4s-0.9,1.3-1.2,2.1c-0.3,0.8-0.5,1.6-0.6,2.4H380.6z"/>
		<path class="st1" d="M426.6,91.1c-0.8,0.3-1.8,0.5-2.9,0.7c-1.1,0.2-2.3,0.4-3.5,0.6c-1.2,0.2-2.4,0.3-3.7,0.4
			c-1.3,0.1-2.5,0.2-3.6,0.2c-2.8,0-5.2-0.4-7.4-1.2c-2.2-0.8-4-2-5.5-3.5c-1.5-1.5-2.6-3.3-3.4-5.5c-0.8-2.1-1.2-4.6-1.2-7.2
			c0-2.7,0.3-5.2,1-7.4c0.7-2.2,1.7-4,2.9-5.6c1.3-1.5,2.8-2.7,4.7-3.5c1.8-0.8,4-1.2,6.3-1.2c1.3,0,2.5,0.1,3.5,0.4
			s2.1,0.6,3.2,1.1V44.3l9.5-1.5V91.1z M405.2,75.2c0,2.9,0.7,5.3,2,7.1c1.3,1.8,3.3,2.7,5.9,2.7c0.8,0,1.6,0,2.4-0.1
			s1.3-0.1,1.8-0.2V67.4c-0.6-0.4-1.4-0.7-2.3-1c-1-0.3-1.9-0.4-2.9-0.4C407.4,66,405.2,69.1,405.2,75.2z"/>
		<path class="st1" d="M464.2,91.1c-1.6,0.5-3.7,0.9-6.2,1.3c-2.5,0.4-5.2,0.6-8,0.6c-2.8,0-5.2-0.4-7.1-1.1
			c-1.9-0.8-3.4-1.8-4.5-3.2c-1.1-1.4-1.9-3-2.4-4.9c-0.5-1.9-0.7-4-0.7-6.3V58.7h9.5v17.5c0,3.1,0.4,5.3,1.2,6.6
			c0.8,1.4,2.3,2,4.5,2c0.7,0,1.4,0,2.2-0.1c0.8-0.1,1.4-0.1,2-0.2V58.7h9.5V91.1z"/>
		<path class="st1" d="M486.5,92.8c-2.8,0-5-0.3-6.7-0.9s-3.1-1.3-4.1-2.3c-1-1-1.7-2.2-2-3.6c-0.4-1.4-0.5-3-0.5-4.8V44.3l9.5-1.5
			v36.5c0,0.9,0.1,1.6,0.2,2.3c0.1,0.7,0.4,1.3,0.7,1.7c0.4,0.5,0.9,0.9,1.6,1.1c0.7,0.3,1.6,0.5,2.7,0.6L486.5,92.8z"/>
		<path class="st1" d="M491.6,75.7c0-3,0.5-5.6,1.4-7.8c0.9-2.2,2.1-4.1,3.6-5.6c1.5-1.5,3.2-2.6,5.1-3.4c1.9-0.8,3.9-1.1,6-1.1
			c4.8,0,8.5,1.5,11.3,4.4c2.8,2.9,4.1,7.2,4.1,12.8c0,0.6,0,1.2-0.1,1.8c0,0.7-0.1,1.2-0.1,1.8h-21.5c0.2,2,1.1,3.5,2.7,4.7
			c1.6,1.1,3.8,1.7,6.5,1.7c1.7,0,3.5-0.2,5.1-0.5c1.7-0.3,3-0.7,4.1-1.2l1.3,7.7c-0.5,0.3-1.2,0.5-2,0.8c-0.9,0.3-1.8,0.5-2.8,0.7
			c-1,0.2-2.2,0.4-3.3,0.5c-1.2,0.1-2.4,0.2-3.6,0.2c-3,0-5.6-0.4-7.9-1.3c-2.2-0.9-4.1-2.1-5.5-3.7c-1.5-1.5-2.5-3.4-3.2-5.5
			C492,80.5,491.6,78.2,491.6,75.7z M513.9,72.1c0-0.8-0.2-1.6-0.4-2.4c-0.2-0.8-0.6-1.4-1.1-2c-0.5-0.6-1.1-1.1-1.8-1.5
			c-0.7-0.4-1.7-0.6-2.8-0.6c-1.1,0-2,0.2-2.7,0.5c-0.8,0.4-1.4,0.8-1.9,1.4s-0.9,1.3-1.2,2.1c-0.3,0.8-0.5,1.6-0.6,2.4H513.9z"/>
	</g>
	<g>
		<g>
			<path class="st1" d="M100,72.9c0-6.4-1.9-12.4-5.1-17.4l10.8-10.8L95.1,34.1L84.2,45c-4.9-2.9-10.5-4.6-16.6-4.6
				c-6.2,0-11.9,1.7-16.8,4.7l-11.1-11L29.1,44.7l11,11c-3.1,5-4.9,10.9-4.9,17.2c0,6.1,1.7,11.9,4.7,16.8l-10.7,10.7L39.7,111
				l10.6-10.6c5,3.1,10.9,5,17.2,5c6.2,0,12.1-1.8,17-4.8L95.1,111l10.6-10.6L95.2,89.9C98.2,85,100,79.1,100,72.9z M67.5,91
				c-10.1,0-18.3-8.2-18.3-18.3s8.2-18.3,18.3-18.3s18.3,8.2,18.3,18.3S77.6,91,67.5,91z"/>
		</g>
		<g>
			<path class="st1" d="M76.3,60.4l-6.7,6.7c-0.7-0.3-1.4-0.4-2.2-0.4c-3.5,0-6.4,2.9-6.4,6.4s2.9,6.4,6.4,6.4c1.1,0,2.1-0.3,3-0.7
				l4.6,5.3l3.9-3.3l-5.2-6c0.1-0.5,0.2-1,0.2-1.6c0-0.9-0.2-1.7-0.5-2.4L80,64L76.3,60.4z"/>
		</g>
	</g>
</g>
</svg>
