<?xml version="1.0" encoding="utf-8"?>
<!-- Generator: Adobe Illustrator 22.1.0, SVG Export Plug-In . SVG Version: 6.00 Build 0)  -->
<svg version="1.1" id="Layer_1" xmlns="http://www.w3.org/2000/svg" xmlns:xlink="http://www.w3.org/1999/xlink" x="0px" y="0px"
	 viewBox="0 0 234 138" style="enable-background:new 0 0 234 138;" xml:space="preserve">
<style type="text/css">
	.st0{fill:#FFFFFF;}
</style>
<g>
	<path class="st0" d="M120,7.8c0.8,1.2,2,0.5,3,0.7c8.4,1.5,13.9,6.3,15.1,15.1c1.9,14.4,1.8,29,0.2,43.5
		c-1.3,11.2-7.2,15.7-18.4,16.7c-3.2,0.3-6.5,0.2-9.6-0.4c-9.4-1.8-14.5-7.2-15.3-18.3c-0.9-13.3-1.1-26.7,0.2-39.9
		c1-10.4,6.3-15.2,16.7-16.8c0.4-0.1,0.8-0.1,0.9-0.6C115.1,7.8,117.5,7.8,120,7.8z M111.4,45.7c0,6.2,0,12.3,0,18.5
		c0,1.3,0,2.7,0.3,3.9c0.6,2.5,2.1,4,4.9,4.1c2.9,0,4.6-1.3,5.2-4c0.3-1.5,0.5-3,0.5-4.5c0-11.8,0-23.6,0-35.5
		c0-1.6-0.2-3.2-0.6-4.8c-0.6-2.3-2.2-3.5-4.6-3.6c-3.7-0.1-5.6,1.8-5.6,6.2C111.3,32.6,111.4,39.2,111.4,45.7z"/>
	<path class="st0" d="M69,7.8c0.7,1.3,2,0.5,3,0.7c8.8,1.7,13.9,7.5,14.6,16.8c0.2,3.4,1.4,7.7-0.4,10c-1.6,2.1-6,0.6-9.2,0.6
		c-6.2,0.1-6.2,0-6.2-6.2c0-2.1,0.1-4.2-0.4-6.3c-0.6-2.3-2-3.4-4.2-3.6c-2.5-0.2-4.4,0.6-5.3,3.1C60.2,24.5,60,26.2,60,28
		c0,11.8,0,23.6,0,35.5c0,1.7,0.2,3.4,0.6,5.1c0.6,2.6,2.4,3.9,5.1,3.7c2.6-0.1,4-1.4,4.6-4c0.7-3.4,0.3-6.8,0.3-10.3
		c0-1.8,0.3-2.7,2.4-2.6c3.7,0.2,7.5,0.1,11.2,0c1.8-0.1,2.5,0.3,2.4,2.3c-0.2,3.8,0.2,7.7-0.6,11.5c-1.7,8.2-6.4,13-14.7,14.3
		c-3.9,0.6-7.9,0.7-11.8,0C51,82.1,45.3,77,44.2,68c-1.6-14.4-1.5-28.9-0.1-43.2c1-10.1,6.1-14.5,16.1-16.4c0.4-0.1,0.8-0.1,0.9-0.6
		C63.8,7.8,66.4,7.8,69,7.8z"/>
	<path class="st0" d="M15.6,92.1c6.8,0,6.8,0,7.6,6.7c0.4,3.1,0.6,6.2,1,9.4c1.2,0,1.1-0.9,1.2-1.7c0.6-4.1,1.2-8.2,1.6-12.3
		c0.2-1.8,0.8-2.3,2.4-2.1c1.5,0.2,3.1-0.6,3.3,2.1c0.5,5.5,1.5,10.9,2.7,16.4c0.6-5.5,1.2-11,1.9-16.5c0.5-3.8,3.5-1.4,5.2-1.8
		c2.3-0.5,1.2,1.5,1.1,2.4c-1.2,10.1-2.6,20.2-3.6,30.3c-0.3,3.5-2.6,2.1-4.3,2.4c-2,0.3-3.1-0.2-3.3-2.6
		c-0.5-5.4-1.5-10.7-2.9-16.1c-0.7,5.3-1.7,10.6-2.1,16c-0.3,4.2-3.3,2.3-5.3,2.7c-2.3,0.4-2.2-1.2-2.4-2.8
		c-1.1-9.7-2.3-19.4-3.5-29.1c-0.1-0.6,0.1-1.3-0.7-1.5C15.6,93.3,15.6,92.7,15.6,92.1z"/>
	<path class="st0" d="M33.5,46.2c0,11.3-0.1,22.6,0.1,33.9c0,2.2-0.5,3-2.8,2.9c-3.8-0.2-7.7-0.1-11.5,0c-1.6,0-2.1-0.5-2.1-2.1
		c0-23.2,0-46.5,0-69.7c0-1.9,0.8-2.1,2.4-2.1c3.8,0.1,7.7,0.1,11.5,0c2-0.1,2.6,0.5,2.6,2.5C33.5,23.1,33.5,34.6,33.5,46.2z"/>
	<path class="st0" d="M113.3,109.5c0-4.9,0.1-9.9,0-14.8c0-1.8,0.3-2.6,2.4-2.6c5.5,0.1,5.5,0,5.5,5.5c0,1.8,0.2,3.7,0,5.4
		c-0.4,2.9,0.8,3.7,3.5,3.4c1.5-0.1,2.1-0.5,2.1-2.1c-0.1-3.3,0-6.7-0.1-10c0-1.6,0.3-2.3,2.1-2.3c5.7-0.1,5.7-0.2,5.7,5.7
		c0,8.9-0.1,17.8,0.1,26.7c0,2.3-0.5,3.2-3,3.1c-4.9-0.2-4.9,0-4.9-5c0-2.6-0.1-5.3,0-7.9c0.2-2.2-0.7-2.7-2.7-2.6
		c-1.9,0.1-3,0.1-2.8,2.5c0.2,3.6,0,7.3,0.1,10.9c0,1.6-0.5,2-2.1,2c-5.8,0.2-5.8,0.2-5.8-5.5C113.3,117.8,113.3,113.7,113.3,109.5z
		"/>
	<path class="st0" d="M176.6,43.7c-3.9,5-7.6,9.8-11.3,14.5c-0.8,1.1-1.7,2.5-3,0.8c-1.1-1.4-4.4-1.8-2-4.8
		c4.7-5.8,9.2-11.7,13.8-17.6c1.3-1.7,2.2-1.9,3.8-0.3c2.5,2.5,5.4,4.6,8,7c1.1,1.1,1.7,0.9,2.5-0.2c2.4-3.3,4.8-6.5,7.3-9.6
		c1-1.3,1.2-2.1-0.3-3.1c-0.7-0.4-1.2-1-1.8-1.6c-1-1-0.9-1.7,0.5-2.1c3.6-1,7.2-2,10.8-2.9c1.2-0.3,2.1,0,2.1,1.6
		c-0.1,4,0,8.1,0,12.1c0,0.6,0.3,1.3-0.5,1.6c-0.7,0.2-1.2-0.3-1.5-0.7c-2.4-3.1-3.8-1.7-5.6,0.8c-3,4.3-6.4,8.3-9.5,12.5
		c-1.3,1.8-2.1,2-3.7,0.4C183.1,49.1,179.9,46.5,176.6,43.7z"/>
	<path class="st0" d="M96.3,110c0,3,0,6.1,0,9.1c0,1.6,0.4,3.2,2.4,3.3c2.2,0.1,2.5-1.6,2.7-3.3c0.2-1.5-0.7-3.8,0.5-4.3
		c1.7-0.7,3.9-0.3,5.9-0.4c0.9,0,1.1,0.5,1.2,1.3c1,6.3-2.3,11.4-8,12.1c-7.7,1-12.4-2.5-12.7-9.7c-0.2-5.6-0.2-11.3,0-16.9
		c0.1-3.7,1.3-7.1,5-8.6c4.1-1.7,8.3-1.7,12.2,0.8c2.7,1.7,4.4,7.9,3.4,10.8c-0.2,0.6-0.5,0.8-1.1,0.8c-0.6,0-1.2,0-1.8,0
		c-4.4,0-4.4,0-4.7-4.2c-0.1-1.7-0.3-3.7-2.7-3.6c-2.1,0.1-2.5,1.8-2.5,3.5C96.2,103.8,96.3,106.9,96.3,110
		C96.3,110,96.3,110,96.3,110z"/>
	<path class="st0" d="M55.9,92.1c0.9,0,1.4,0.1,1.9,0c2.4-0.5,3.3,0.6,3.7,2.9c1.7,9.9,3.6,19.8,5.6,29.7c0.4,2.1-0.1,2.8-2.3,2.7
		c-4.3-0.1-4.6,0-5.1-4.4c-0.3-3-1.8-3.3-4.1-3.1c-1.3,0.1-1.9,0.4-1.9,1.7c0,0.5-0.2,1-0.3,1.5c-0.7,4-2.9,5.3-7,4.3
		c-1-0.3-1-0.8-0.8-1.5c2-10.7,4.1-21.4,6.1-32.1C52.3,90.5,55,93.1,55.9,92.1z M56.8,103.9c-0.2,0-0.4,0.1-0.6,0.1
		c-0.4,3.2-0.8,6.3-1.3,9.5c-0.2,1.4,0.2,1.8,1.5,1.8c1.4,0,2-0.4,1.8-1.9C57.7,110.2,57.3,107.1,56.8,103.9z"/>
	<path class="st0" d="M181.5,127.9c-6,0-9.5-3.4-9.9-9.5c-0.1-1.3,0.2-1.9,1.5-2c0.8,0,1.6-0.1,2.4-0.3c2.1-0.8,2.9-0.1,2.9,2.1
		c0,0.8,0.3,1.6,0.7,2.3c0.5,1.2,1.5,1.6,2.7,1.4c1.3-0.2,1.4-1.3,1.4-2.3c0.1-2.4-1-4.3-2.7-5.8c-2.1-1.9-4.3-3.7-6.2-5.7
		c-3.2-3.5-3.7-8.9-1.2-12.6c2.2-3.2,7.4-4.7,11.7-3.3c3.2,1,5.9,5.3,5.5,8.6c-0.1,0.7-0.3,1.1-1.1,1.1c-0.9,0.1-1.8,0.1-2.7,0.3
		c-2,0.6-3.2,0.3-3.2-2.2c0-1.3-0.4-2.8-2.3-2.5c-1.8,0.3-2,1.8-1.9,3.3c0.1,1.6,0.9,2.8,2.1,3.9c2,1.8,4.1,3.6,6,5.6
		c2.9,3,4.3,6.6,3.6,10.8C190,125.2,186.3,127.9,181.5,127.9z"/>
	<path class="st0" d="M73.4,112.6c0-3.9-0.1-7.9,0-11.8c0.1-2.2-0.5-3.2-2.8-2.9c-0.9,0.1-2.3,0.5-2.6-0.8c-0.3-1.5-0.2-3,0.1-4.5
		c0.1-0.7,1.2-0.5,1.9-0.5c4.8,0,9.7,0.1,14.5-0.1c2.3-0.1,2.2,1.2,2,2.6c-0.1,1.4,0.8,3.7-2,3.2c-3.2-0.5-3.5,1-3.5,3.7
		c0.2,7.7,0,15.3,0.1,23c0,2.3-0.5,2.9-2.8,2.8c-5-0.2-5,0-5-4.9C73.4,119.2,73.4,115.9,73.4,112.6z"/>
	<path class="st0" d="M198.1,112.6c0-4-0.1-8.1,0.1-12.1c0.1-2.2-0.7-3-2.7-2.6c-2.7,0.5-2.7-1.1-2.8-3.1c-0.2-2.4,0.8-2.8,2.9-2.7
		c4.4,0.2,8.9,0.2,13.3,0c2-0.1,2.7,0.5,2.5,2.5c-0.2,1.6,0.7,3.8-2.3,3.3c-2.9-0.5-3.3,0.9-3.2,3.4c0.1,7.8,0,15.6,0.1,23.3
		c0,2.2-0.4,3-2.8,2.9c-4.9-0.2-4.9,0-4.9-4.9C198.1,119.3,198.1,115.9,198.1,112.6z"/>
	<path class="st0" d="M139.9,109.7c0-5.1,0.1-10.3,0-15.4c0-1.7,0.4-2.2,2.1-2.2c5.8,0,5.8-0.1,5.8,5.5c0,7.4,0.1,14.7,0,22.1
		c0,2,0.5,2.7,2.5,2.5c0.8-0.1,1.6,0,2.4,0c2.9,0,4.1,1.9,3.1,4.5c-0.4,1-1.1,0.7-1.7,0.7c-4.1,0-8.3-0.1-12.4,0.1
		c-1.6,0-1.8-0.7-1.8-2C139.9,120.2,139.9,115,139.9,109.7z"/>
	<path class="st0" d="M159.3,109.7c0-5,0.1-10.1,0-15.1c-0.1-2,0.5-2.5,2.5-2.5c5.3,0.1,5.3,0,5.3,5.2c0,9.2-0.1,18.4,0,27.5
		c0,2.1-0.6,2.7-2.7,2.7c-5-0.1-5,0-5-5C159.3,118.2,159.3,113.9,159.3,109.7z"/>
	<g>
		<polygon class="st0" points="145.8,82.8 145.8,8.3 151.9,8.3 151.9,76.7 212.2,76.6 212.2,82.6 		"/>
	</g>
</g>
</svg>
