<?xml version="1.0" encoding="utf-8"?>
<!-- Generator: Adobe Illustrator 22.1.0, SVG Export Plug-In . SVG Version: 6.00 Build 0)  -->
<svg version="1.1" id="Layer_1" xmlns="http://www.w3.org/2000/svg" xmlns:xlink="http://www.w3.org/1999/xlink" x="0px" y="0px"
	 viewBox="0 0 423 136" style="enable-background:new 0 0 423 136;" xml:space="preserve">
<style type="text/css">
	.st0{fill:#FFFFFF;}
</style>
<g>
	<path class="st0" d="M314.4,87.4c0-1.8,0-3.3,0-4.7c0-15.1,0-30.2,0-45.3c0-4.4,1.3-5.8,5.8-5.8c6.6,0,13.2,0,19.7,0
		c9.8,0,17.7,5.4,20.5,14c2.7,8.2-0.3,16.7-8.2,22.6c-0.1,0.1-0.3,0.3-0.6,0.6c4.2,6,8.3,12,12.8,18.5c-6.2,0-12,0.1-17.8-0.1
		c-1,0-2.2-1.3-2.9-2.3c-2.7-3.8-5.3-7.6-7.8-11.5c-1-1.6-2.1-2.5-4.5-1.7c0,3.1,0,6.4,0,9.7c0,4.7-1.3,6-5.9,6
		C322.1,87.4,318.5,87.4,314.4,87.4z M331.7,57c2.2,0,4.1,0,6.1,0c0.5,0,1.1,0,1.6-0.1c2.6-0.5,4.5-2.8,4.4-5.2
		c-0.1-2.5-2-4.8-4.6-5c-2.4-0.2-4.9,0-7.5,0C331.7,50.1,331.7,53.4,331.7,57z"/>
	<path class="st0" d="M214.1,87.4c-5.1,0-9.8,0.1-14.5,0c-2.6-0.1-3.8-1.9-4.1-4.1c-0.5-3-2.1-4-5.1-3.7c-3.9,0.3-7.8,0.2-11.7,0
		c-1.9-0.1-3.2,0.3-3.5,2.5c-0.1,0.9-0.3,2-0.9,2.6c-1.2,1.1-2.6,2.6-4,2.7c-4.6,0.3-9.2,0.1-14.3,0.1c1-2.7,1.8-5.1,2.8-7.8
		c-4.8,0-9.3,0-14.5,0c1.7-4.1,3-8,4.8-11.6c0.5-1,2.4-1.6,3.8-1.8c2.8-0.3,5.7-0.2,8.6,0c1.9,0.1,2.8-0.6,3.4-2.3
		c3.5-9.4,7.1-18.7,10.6-28c1.4-3.7,2.2-4.2,6.1-4.2c3.1,0,6.1,0.1,9.2,0c1.6-0.1,2.5,0.4,3.1,2c6.6,17.4,13.2,34.7,19.8,52.1
		C213.8,86.1,213.9,86.5,214.1,87.4z M185.1,51.9c-1.7,5.1-3.1,9.5-4.6,14c3.1,0,6,0,9.2,0C188.1,61.3,186.7,57,185.1,51.9z"/>
	<path class="st0" d="M87.8,59.5c-0.5-12.7,9.4-28.4,28.3-28.5c16.7-0.1,28.6,12.9,28.5,28.6c-0.1,15.5-11.9,28.5-28.5,28.4
		C97.3,87.9,87.4,72.2,87.8,59.5z M130,71c-0.4-4.5-0.8-8.5-0.9-12.5c-0.2-5.6-2.8-9.6-7.8-12.1c-0.9-0.4-1.7-1.2-2.4-2.1
		c-1.4-1.8-3.2-2.1-4.7-0.8c-1.6,1.3-3.1,2.6-4.8,3.8c-2.7,1.9-4.9,4.2-5.4,7.4c-0.8,5.3-1.1,10.7-1.6,16.1
		C111.5,71,120.9,71,130,71z M119.9,72.3c-2.5,0-5,0-7.5,0c0,2.6,1.5,3.9,3.6,3.9C118.3,76.2,119.8,75,119.9,72.3z"/>
	<path class="st0" d="M307.9,31.7c0,3.8,0.1,7.5,0,11.2c-0.1,2.5-2,3.7-5,3.8c-5.7,0-11.5,0-17.2,0c-0.9,0-1.8,0-2.9,0
		c0,2.2,0,4.2,0,6.5c6,0,11.9,0,18.2,0c0,4.2,0.1,8.1-0.1,11.9c0,0.5-1.3,1.3-2.1,1.3c-4.3,0.1-8.5,0.1-12.8,0.1c-1,0-2,0-3.3,0
		c0,1.9,0,3.6,0,5.8c1.1,0,2.2,0,3.4,0c5.6,0,11.1,0,16.7,0c3.5,0,5.1,1.6,5.1,5.1c0,3.2,0,6.4,0,9.8c-14.2,0-28.2,0-42.3,0
		c0-1-0.1-1.8-0.1-2.7c0-15.6,0-31.3,0-46.9c0-4.7,1.2-6,5.9-6c11.2,0,22.4,0,33.6,0C305.8,31.6,306.7,31.7,307.9,31.7z"/>
	<path class="st0" d="M85.2,79.6c-9.7,10.9-28.4,11-39.4,0.5c-11.6-11-11.7-29.8-0.2-41c11-10.7,29.7-10.7,39.2-0.2
		c-2.9,3.1-5.6,6.3-8.8,9.1c-0.9,0.8-3.4,0.5-4.8-0.1c-8-3.3-16.2,0.6-18.2,8.8c-1.2,4.9,0.4,9,4,12.3c3.9,3.5,8.6,4.5,13.4,2.3
		c3.3-1.6,5.7-1,8.1,1.6C80.4,75.3,82.8,77.3,85.2,79.6z"/>
	<path class="st0" d="M377.5,46.6c-5,0-9.5,0-14.2,0c0-3.9-0.1-7.6,0-11.3c0.1-2.2,1.6-3.7,3.8-3.7c13.7-0.1,27.4,0,41.3,0
		c0,4,0.2,7.7-0.1,11.5c-0.2,2.5-2.1,3.6-4.5,3.6c-3,0-6.1,0-9.4,0c0,13.6,0,27,0,40.5c-5.8,0-11.3,0-17.1,0
		C377.5,73.8,377.5,60.4,377.5,46.6z"/>
	<path class="st0" d="M258.9,72.3c0,4,0.1,7.5,0,11c-0.1,2.3-1.5,4-3.8,4c-11.8,0.1-23.7,0.1-35.7,0.1c-0.1-1.1-0.2-2-0.2-2.8
		c0-15.7,0-31.3,0-47c0-4.7,1.3-5.9,5.9-6c3.6,0,7.2,0,11.1,0c0,13.6,0,27,0,40.7C243.8,72.3,251.2,72.3,258.9,72.3z"/>
	<path class="st0" d="M31.3,58.5c0,7.8,0,15.5,0,23.3c0,3.8-1.4,5.2-5.1,5.2c-3,0-5.9-0.1-8.9,0c-1.6,0-2.3-0.5-2.3-2.2
		c0-16.2,0-32.4,0-48.6c0-2.8,1.5-4.3,4.3-4.4c3.2-0.1,6.5,0.1,9.7-0.1c1.9-0.1,2.3,0.8,2.3,2.5C31.3,42.4,31.3,50.5,31.3,58.5z"/>
</g>
</svg>
