<?xml version="1.0" encoding="utf-8"?>
<!-- Generator: Adobe Illustrator 22.1.0, SVG Export Plug-In . SVG Version: 6.00 Build 0)  -->
<svg version="1.1" id="Layer_1" xmlns="http://www.w3.org/2000/svg" xmlns:xlink="http://www.w3.org/1999/xlink" x="0px" y="0px"
	 viewBox="0 0 550 124" style="enable-background:new 0 0 550 124;" xml:space="preserve">
<style type="text/css">
	.st0{fill:#FFFFFF;}
</style>
<g>
	<path class="st0" d="M117.6,58.2c0,3.5,0,7,0,10.5c-0.7,0.6-0.5,1.4-0.6,2.2c-3.2,18.4-16.9,32.7-35.3,36.7c-1.4,0.3-3,0.2-4.3,1
		c-3.6,0-7.2,0-10.9,0c-0.5-0.7-1.3-0.5-1.9-0.7c-18.2-3.2-32.6-17-36.5-35.1c-0.3-1.4-0.2-2.9-1-4.1c0-3.6,0-7.2,0-10.9
		c0.7-0.6,0.5-1.4,0.6-2.2C30.8,37.4,44.6,23,62.7,19c1.5-0.3,3.1-0.3,4.5-1c3.3,0,6.5,0,9.8,0c0.2,0.4,0.6,0.3,0.9,0.3
		c19.3,2.5,34.5,16.5,38.7,35.6C116.9,55.3,116.8,56.9,117.6,58.2z M108.6,68.7c-0.2-0.3-0.4-0.6-0.6-0.9c-1.8-2.5-3.6-4.9-5.2-7.4
		c-0.8-1.2-1.3-1.1-2.3-0.3c-7.7,5.6-15.5,11.1-23.2,16.7c-1,0.8-1.5,0.7-2.2-0.4c-1.3-2-2.7-3.8-4.1-5.7c-0.4-0.6-0.7-1.1-1.5-0.4
		c-2.6,2-5.2,3.9-7.9,5.7c-0.7,0.5-0.6,0.8-0.2,1.4C65.2,82.8,69,88,72.8,93.3c0.5,0.8,0.9,0.9,1.7,0.3c11.1-8,22.2-16,33.4-24
		C108.2,69.4,108.6,69.3,108.6,68.7z M84.6,46.9c-0.2-0.3-0.4-0.6-0.6-0.9c-1.7-2.4-3.5-4.8-5.1-7.2c-0.8-1.3-1.4-1.3-2.6-0.4
		c-7.7,5.6-15.4,11.1-23,16.6c-1,0.7-1.5,0.7-2.2-0.4c-1.3-2-2.8-3.8-4.1-5.7c-0.5-0.8-0.9-0.9-1.7-0.3c-2.5,1.9-5,3.7-7.6,5.5
		c-0.7,0.5-0.8,0.8-0.3,1.5c3.8,5.3,7.7,10.5,11.5,15.8c0.6,0.8,0.9,0.8,1.7,0.3c2.8-2.1,5.6-4,8.4-6C67,59.8,75.3,53.9,83.5,48
		C83.9,47.7,84.5,47.5,84.6,46.9z"/>
	<g>
		<path class="st0" d="M137.8,95.9V33.2h8.6v62.7H137.8z"/>
		<path class="st0" d="M172.2,96.6c-2.6,0-4.9-0.4-6.8-1.1c-2-0.7-3.6-1.7-4.8-2.9c-1.2-1.2-2.3-2.7-3.1-4.5
			c-0.8-1.8-1.3-3.7-1.6-5.7c-0.3-2-0.5-4.2-0.5-6.7V53.6c0-2.6,0.2-5,0.5-7.1c0.3-2.1,0.9-4,1.6-5.8c0.8-1.8,1.8-3.3,3.1-4.4
			c1.3-1.2,2.9-2.1,4.8-2.7c2-0.7,4.2-1,6.8-1c5.6,0,9.7,1.5,12.1,4.6c2.4,3,3.7,7.5,3.7,13.5v5h-8.3v-4.4c0-1,0-1.7,0-2.2
			c0-0.5,0-1.2-0.1-2c0-0.8-0.1-1.4-0.2-1.9c-0.1-0.5-0.2-1-0.4-1.6c-0.2-0.6-0.4-1.1-0.6-1.4c-0.3-0.3-0.6-0.7-0.9-1.1
			c-0.4-0.4-0.8-0.7-1.3-0.9c-0.5-0.2-1-0.3-1.7-0.5c-0.7-0.1-1.4-0.2-2.2-0.2c-1.2,0-2.3,0.1-3.2,0.4c-0.9,0.3-1.7,0.7-2.2,1.2
			c-0.6,0.6-1.1,1.2-1.4,1.9c-0.4,0.7-0.6,1.6-0.8,2.6c-0.2,1.1-0.3,2.1-0.4,3.1c-0.1,1-0.1,2.2-0.1,3.7v24.8c0,4.7,0.6,8,1.8,9.8
			c1.2,1.8,3.3,2.8,6.3,2.8c1.2,0,2.2-0.1,3-0.4c0.8-0.3,1.5-0.7,2.1-1.2c0.5-0.6,1-1.2,1.3-1.8c0.3-0.6,0.6-1.5,0.7-2.6
			c0.2-1.1,0.2-2.1,0.3-3c0-0.9,0.1-2.1,0.1-3.6v-4.6h8.3v4.6c0,2.4-0.2,4.5-0.5,6.4c-0.3,1.9-0.8,3.7-1.5,5.3
			c-0.7,1.7-1.7,3-2.9,4.1c-1.2,1.1-2.7,1.9-4.5,2.6C176.7,96.3,174.6,96.6,172.2,96.6z"/>
		<path class="st0" d="M212.3,96.6c-3.1,0-5.8-0.5-8-1.4c-2.2-0.9-4-2.3-5.3-4.1c-1.3-1.8-2.3-3.9-2.9-6.4s-0.9-5.2-0.9-8.5V52.5
			c0-6.5,1.3-11.5,4-14.8c2.7-3.4,7-5,13.1-5c6.1,0,10.4,1.7,13.1,5.1c2.7,3.4,4,8.3,4,14.8v23.8c0,6.5-1.3,11.5-4,15
			C222.7,94.8,218.3,96.6,212.3,96.6z M208,89c1.1,0.5,2.5,0.8,4.3,0.8c1.7,0,3.1-0.3,4.3-0.8c1.1-0.5,2-1.3,2.6-2.4
			c0.6-1.1,1-2.3,1.2-3.6c0.2-1.3,0.3-2.9,0.3-4.8V50.7c0-1.9-0.1-3.5-0.3-4.7c-0.2-1.3-0.6-2.4-1.2-3.5c-0.6-1.1-1.4-1.8-2.6-2.3
			c-1.1-0.5-2.5-0.7-4.3-0.7c-1.7,0-3.1,0.2-4.3,0.7c-1.1,0.5-2,1.3-2.6,2.3c-0.6,1.1-1,2.2-1.2,3.5c-0.2,1.3-0.3,2.8-0.3,4.7v27.4
			c0,1.9,0.1,3.5,0.3,4.8c0.2,1.3,0.6,2.5,1.2,3.6C206.1,87.6,206.9,88.4,208,89z"/>
		<path class="st0" d="M262.2,95.9V39.7h-11.5v-6.5H282v6.5h-11v56.2H262.2z"/>
		<path class="st0" d="M286.8,95.9V33.2h12.6c6.4,0,11,1.3,14,3.9c3,2.6,4.4,6.8,4.4,12.7c0,8.1-2.6,12.9-7.7,14.6l9,31.5h-8.5
			l-8.2-29.4h-6.8v29.4H286.8z M295.5,60.2h3.3c3.8,0,6.5-0.7,8.1-2.2s2.4-4.2,2.4-8.1c0-3.8-0.7-6.5-2.1-8c-1.4-1.5-4-2.3-7.9-2.3
			h-3.9V60.2z"/>
		<path class="st0" d="M323.5,95.9l13.4-62.7h8.4l13.4,62.7h-8.3l-2.9-15.8h-12.7l-3,15.8H323.5z M335.9,73.9h10.5l-5.3-28.3
			L335.9,73.9z"/>
		<path class="st0" d="M380.7,96.6c-2.6,0-4.9-0.4-6.8-1.1c-2-0.7-3.6-1.7-4.8-2.9c-1.2-1.2-2.3-2.7-3.1-4.5
			c-0.8-1.8-1.3-3.7-1.6-5.7c-0.3-2-0.5-4.2-0.5-6.7V53.6c0-2.6,0.2-5,0.5-7.1c0.3-2.1,0.9-4,1.6-5.8c0.8-1.8,1.8-3.3,3.1-4.4
			c1.3-1.2,2.9-2.1,4.8-2.7c2-0.7,4.2-1,6.8-1c5.6,0,9.7,1.5,12.1,4.6c2.4,3,3.7,7.5,3.7,13.5v5h-8.3v-4.4c0-1,0-1.7,0-2.2
			c0-0.5,0-1.2-0.1-2c0-0.8-0.1-1.4-0.2-1.9c-0.1-0.5-0.2-1-0.4-1.6c-0.2-0.6-0.4-1.1-0.6-1.4c-0.3-0.3-0.6-0.7-0.9-1.1
			c-0.4-0.4-0.8-0.7-1.3-0.9c-0.5-0.2-1-0.3-1.7-0.5c-0.7-0.1-1.4-0.2-2.2-0.2c-1.2,0-2.3,0.1-3.2,0.4c-0.9,0.3-1.7,0.7-2.2,1.2
			c-0.6,0.6-1.1,1.2-1.4,1.9c-0.4,0.7-0.6,1.6-0.8,2.6c-0.2,1.1-0.3,2.1-0.4,3.1c-0.1,1-0.1,2.2-0.1,3.7v24.8c0,4.7,0.6,8,1.8,9.8
			c1.2,1.8,3.3,2.8,6.3,2.8c1.2,0,2.2-0.1,3-0.4c0.8-0.3,1.5-0.7,2.1-1.2c0.5-0.6,1-1.2,1.3-1.8c0.3-0.6,0.6-1.5,0.7-2.6
			c0.2-1.1,0.2-2.1,0.3-3c0-0.9,0.1-2.1,0.1-3.6v-4.6h8.3v4.6c0,2.4-0.2,4.5-0.5,6.4c-0.3,1.9-0.8,3.7-1.5,5.3
			c-0.7,1.7-1.7,3-2.9,4.1c-1.2,1.1-2.7,1.9-4.5,2.6C385.2,96.3,383.1,96.6,380.7,96.6z"/>
		<path class="st0" d="M404.9,95.9V33.2h8.7v29.5L428,33.2h8.1l-12.4,27.6l14.4,35h-8.5L417,64.8l-3.4,6.4v24.7H404.9z"/>
		<path class="st0" d="M443.2,95.9V33.2h24.3v6.5h-15.5v20.7h12.6v6.2h-12.6v23h15.7v6.3H443.2z"/>
		<path class="st0" d="M474.7,95.9V33.2h12.6c6.4,0,11,1.3,14,3.9c3,2.6,4.4,6.8,4.4,12.7c0,8.1-2.6,12.9-7.7,14.6l9,31.5h-8.5
			l-8.2-29.4h-6.8v29.4H474.7z M483.5,60.2h3.3c3.8,0,6.5-0.7,8.1-2.2s2.4-4.2,2.4-8.1c0-3.8-0.7-6.5-2.1-8c-1.4-1.5-4-2.3-7.9-2.3
			h-3.9V60.2z"/>
	</g>
</g>
</svg>
